<?xml version="1.0" encoding="UTF-8" standalone="no"?>
<!-- Created with Inkscape (http://www.inkscape.org/) -->

<svg
   width="63.521362mm"
   height="53.447121mm"
   viewBox="0 0 63.521362 53.447121"
   version="1.1"
   id="svg1"
   xml:space="preserve"
   xmlns="http://www.w3.org/2000/svg"
   xmlns:svg="http://www.w3.org/2000/svg"><defs
     id="defs1" /><g
     id="layer1"
     transform="translate(-46.795245,78.677003)"><path
       d="m 76.357633,-25.479879 c 4.1e-4,-0.171249 4.96381,-18.390923 5.39382,-18.96588 1.57198,-2.101848 2.01965,-3.092381 2.70194,-4.212651 0.44336,-0.727952 0.81797,-1.683649 0.90709,-2.204259 -0.85009,-0.54302 -1.18103,-0.746225 -1.8292,-1.356735 -0.65656,-0.61841 -0.86714,-0.827898 -1.51983,-1.819087 -0.2489,-0.377972 -0.44603,-0.68751 -0.57071,-1.12189 -0.17233,-0.454325 -0.36841,-1.684175 0.34689,-2.184769 1.35074,-0.945299 2.20117,0.03667 2.59761,0.430737 0.61434,0.610671 1.08553,1.222567 1.40829,1.5398 0.83237,0.818098 1.37216,1.208749 2.1899,1.589281 0.46497,0.216375 0.98423,0.308069 1.49325,0.370649 0.5937,0.02109 1.19562,0.01819 1.78625,-0.04009 0.56318,-0.10155 1.07433,-0.331311 1.54554,-0.64967 0.30022,-0.202818 0.63949,-0.547741 1.01773,-0.546737 0.95403,0.0025 2.20169,0.624531 3.16022,0.839883 1.076,0.241732 2.20579,0.4351 3.305367,0.489052 0.37421,0.01836 0.76314,-0.01396 1.13,0.05686 0.4046,0.07808 0.62181,0.506895 0.86793,0.804777 0.59181,0.716256 1.23231,1.882865 2.24462,1.978264 1.28024,0.120637 2.07024,-0.764182 3.04268,-1.464493 0.3237,-0.233107 0.76375,-0.08857 1.12055,-0.196011 0.94565,-0.284522 1.43461,-1.273101 1.36203,-2.22362 -0.0506,-0.663304 -0.45066,-1.352389 -0.71123,-1.961493 -0.40487,-0.946488 -0.46559,-1.732135 -1.23508,-2.489936 -0.85876,-0.845626 -1.87843,-1.565703 -2.80269,-2.340366 -2.11135,-1.769663 -4.25366,-3.511838 -6.313497,-5.341151 -0.54909,-0.487644 -1.25778,-0.948956 -1.68448,-1.552188 -0.60956,-0.861752 -0.79763,-1.700488 -1.67865,-2.421892 -0.96011,-0.786152 -2.13991,-1.314874 -3.2233,-1.907058 -0.41619,-0.227486 -1.07528,-0.409877 -1.3824,-0.772741 -0.33651,-0.397612 0.0243,-1.235895 0.11254,-1.706999 0.11251,-0.600587 0.25862,-1.239681 0.35908,-1.841267 0.0735,-0.439893 0.38186,-1.4417 -0.10926,-1.666509 -0.49112,-0.224797 -0.87427,0.212323 -1.11385,0.400525 -0.81718,0.641632 -1.60568,1.306463 -2.31162,2.054791 -0.37061,0.392856 -0.73961,1.085455 -1.22154,1.331937 -0.30498,0.155995 -1.10495,0.154178 -1.37526,0.168996 -0.39447,0.02165 -0.39819,-0.227312 -0.43458,-0.550964 -0.0724,-0.643879 -0.0236,-1.246007 -0.10248,-1.886335 -0.0247,-0.200866 -0.16153,-0.736928 -0.51673,-0.77397 -0.35524,-0.03702 -0.99145,0.652298 -1.22836,0.929439 -0.57657,0.67448 -1.1476,1.792192 -2.07006,2.33042 -2.12117,0.03543 -9.99451,3.298275 -17.170628,11.25725 -13.356367,14.813438 -16.800279,18.289788 -16.800279,18.289788"
       style="fill:none;stroke:#2d3996;stroke-width:0.5;stroke-linecap:round;stroke-dasharray:none;stroke-opacity:1"
       id="path1-1-5-1-2-9" /></g></svg>
